<svg xmlns="http://www.w3.org/2000/svg" width="1600" height="1200" viewBox="0 0 1600 1200"><defs><linearGradient id="sky-416341693" x1="0" y1="0" x2="0" y2="1"><stop offset="0" stop-color="#dfe3e0"/><stop offset="0.6" stop-color="#e9e7dc"/><stop offset="1" stop-color="#efe9da"/></linearGradient></defs>
<rect width="1600" height="1200" fill="url(#sky-416341693)"/><ellipse cx="983" cy="194" rx="342" ry="37" fill="#ffffff" opacity="0.28"/><ellipse cx="417" cy="276" rx="516" ry="48" fill="#ffffff" opacity="0.38"/><ellipse cx="1460" cy="295" rx="498" ry="26" fill="#ffffff" opacity="0.36"/><ellipse cx="424" cy="284" rx="189" ry="30" fill="#ffffff" opacity="0.40"/><ellipse cx="1037" cy="268" rx="195" ry="76" fill="#ffffff" opacity="0.27"/><rect x="0" y="1032" width="1600" height="168" fill="#e8dfcd"/>
<path d="M0 1032 Q 480 1020 880.0000000000001 1036 T 1600 1026 L 1600 1032 Z" fill="#e8dfcd" opacity="0.9"/><rect x="429.36988358036615" y="562.8222419349477" width="239.17903469875455" height="469.17775806505233" fill="#f7f2e9"/><rect x="429.36988358036615" y="562.8222419349477" width="239.17903469875455" height="14" fill="#14110d"/><rect x="451.36988358036615" y="606.8222419349477" width="53.726344899584845" height="54" fill="#c8d2d6" opacity="0.92"/><line x1="451.36988358036615" y1="633.8222419349477" x2="505.096228479951" y2="633.8222419349477" stroke="#2a251d" stroke-width="2.5" opacity="0.5"/><rect x="451.36988358036615" y="698.8222419349477" width="53.726344899584845" height="54" fill="#c8d2d6" opacity="0.92"/><line x1="451.36988358036615" y1="725.8222419349477" x2="505.096228479951" y2="725.8222419349477" stroke="#2a251d" stroke-width="2.5" opacity="0.5"/><rect x="451.36988358036615" y="790.8222419349477" width="53.726344899584845" height="54" fill="#d98e32" opacity="0.85"/><line x1="451.36988358036615" y1="817.8222419349477" x2="505.096228479951" y2="817.8222419349477" stroke="#2a251d" stroke-width="2.5" opacity="0.5"/><rect x="451.36988358036615" y="882.8222419349477" width="53.726344899584845" height="54" fill="#d98e32" opacity="0.85"/><line x1="451.36988358036615" y1="909.8222419349477" x2="505.096228479951" y2="909.8222419349477" stroke="#2a251d" stroke-width="2.5" opacity="0.5"/><rect x="531.096228479951" y="606.8222419349477" width="53.726344899584845" height="54" fill="#c8d2d6" opacity="0.92"/><line x1="531.096228479951" y1="633.8222419349477" x2="584.8225733795359" y2="633.8222419349477" stroke="#2a251d" stroke-width="2.5" opacity="0.5"/><rect x="531.096228479951" y="698.8222419349477" width="53.726344899584845" height="54" fill="#c8d2d6" opacity="0.92"/><line x1="531.096228479951" y1="725.8222419349477" x2="584.8225733795359" y2="725.8222419349477" stroke="#2a251d" stroke-width="2.5" opacity="0.5"/><rect x="531.096228479951" y="790.8222419349477" width="53.726344899584845" height="54" fill="#d98e32" opacity="0.85"/><line x1="531.096228479951" y1="817.8222419349477" x2="584.8225733795359" y2="817.8222419349477" stroke="#2a251d" stroke-width="2.5" opacity="0.5"/><rect x="531.096228479951" y="882.8222419349477" width="53.726344899584845" height="54" fill="#c8d2d6" opacity="0.92"/><line x1="531.096228479951" y1="909.8222419349477" x2="584.8225733795359" y2="909.8222419349477" stroke="#2a251d" stroke-width="2.5" opacity="0.5"/><rect x="610.8225733795358" y="606.8222419349477" width="53.726344899584845" height="54" fill="#c8d2d6" opacity="0.92"/><line x1="610.8225733795358" y1="633.8222419349477" x2="664.5489182791207" y2="633.8222419349477" stroke="#2a251d" stroke-width="2.5" opacity="0.5"/><rect x="610.8225733795358" y="698.8222419349477" width="53.726344899584845" height="54" fill="#d98e32" opacity="0.85"/><line x1="610.8225733795358" y1="725.8222419349477" x2="664.5489182791207" y2="725.8222419349477" stroke="#2a251d" stroke-width="2.5" opacity="0.5"/><rect x="610.8225733795358" y="790.8222419349477" width="53.726344899584845" height="54" fill="#d98e32" opacity="0.85"/><line x1="610.8225733795358" y1="817.8222419349477" x2="664.5489182791207" y2="817.8222419349477" stroke="#2a251d" stroke-width="2.5" opacity="0.5"/><rect x="610.8225733795358" y="882.8222419349477" width="53.726344899584845" height="54" fill="#c8d2d6" opacity="0.92"/><line x1="610.8225733795358" y1="909.8222419349477" x2="664.5489182791207" y2="909.8222419349477" stroke="#2a251d" stroke-width="2.5" opacity="0.5"/><rect x="435.36988358036615" y="664.8222419349477" width="227.17903469875455" height="6" fill="#6f6455" opacity="0.55"/><rect x="435.36988358036615" y="756.8222419349477" width="227.17903469875455" height="6" fill="#6f6455" opacity="0.55"/><rect x="435.36988358036615" y="848.8222419349477" width="227.17903469875455" height="6" fill="#6f6455" opacity="0.55"/><rect x="435.36988358036615" y="940.8222419349477" width="227.17903469875455" height="6" fill="#6f6455" opacity="0.55"/><rect x="714.5489182791207" y="382.9221943281591" width="217.52565105678514" height="649.0778056718409" fill="#e8dfcd"/><rect x="714.5489182791207" y="382.9221943281591" width="217.52565105678514" height="14" fill="#14110d"/><rect x="736.5489182791207" y="426.9221943281591" width="82.76282552839257" height="54" fill="#c8d2d6" opacity="0.92"/><line x1="736.5489182791207" y1="453.9221943281591" x2="819.3117438075133" y2="453.9221943281591" stroke="#2a251d" stroke-width="2.5" opacity="0.5"/><rect x="736.5489182791207" y="518.9221943281591" width="82.76282552839257" height="54" fill="#c8d2d6" opacity="0.92"/><line x1="736.5489182791207" y1="545.9221943281591" x2="819.3117438075133" y2="545.9221943281591" stroke="#2a251d" stroke-width="2.5" opacity="0.5"/><rect x="736.5489182791207" y="610.9221943281591" width="82.76282552839257" height="54" fill="#c8d2d6" opacity="0.92"/><line x1="736.5489182791207" y1="637.9221943281591" x2="819.3117438075133" y2="637.9221943281591" stroke="#2a251d" stroke-width="2.5" opacity="0.5"/><rect x="736.5489182791207" y="702.9221943281591" width="82.76282552839257" height="54" fill="#d98e32" opacity="0.85"/><line x1="736.5489182791207" y1="729.9221943281591" x2="819.3117438075133" y2="729.9221943281591" stroke="#2a251d" stroke-width="2.5" opacity="0.5"/><rect x="736.5489182791207" y="794.9221943281591" width="82.76282552839257" height="54" fill="#c8d2d6" opacity="0.92"/><line x1="736.5489182791207" y1="821.9221943281591" x2="819.3117438075133" y2="821.9221943281591" stroke="#2a251d" stroke-width="2.5" opacity="0.5"/><rect x="736.5489182791207" y="886.9221943281591" width="82.76282552839257" height="54" fill="#c8d2d6" opacity="0.92"/><line x1="736.5489182791207" y1="913.9221943281591" x2="819.3117438075133" y2="913.9221943281591" stroke="#2a251d" stroke-width="2.5" opacity="0.5"/><rect x="845.3117438075133" y="426.9221943281591" width="82.76282552839257" height="54" fill="#c8d2d6" opacity="0.92"/><line x1="845.3117438075133" y1="453.9221943281591" x2="928.0745693359058" y2="453.9221943281591" stroke="#2a251d" stroke-width="2.5" opacity="0.5"/><rect x="845.3117438075133" y="518.9221943281591" width="82.76282552839257" height="54" fill="#d98e32" opacity="0.85"/><line x1="845.3117438075133" y1="545.9221943281591" x2="928.0745693359058" y2="545.9221943281591" stroke="#2a251d" stroke-width="2.5" opacity="0.5"/><rect x="845.3117438075133" y="610.9221943281591" width="82.76282552839257" height="54" fill="#d98e32" opacity="0.85"/><line x1="845.3117438075133" y1="637.9221943281591" x2="928.0745693359058" y2="637.9221943281591" stroke="#2a251d" stroke-width="2.5" opacity="0.5"/><rect x="845.3117438075133" y="702.9221943281591" width="82.76282552839257" height="54" fill="#d98e32" opacity="0.85"/><line x1="845.3117438075133" y1="729.9221943281591" x2="928.0745693359058" y2="729.9221943281591" stroke="#2a251d" stroke-width="2.5" opacity="0.5"/><rect x="845.3117438075133" y="794.9221943281591" width="82.76282552839257" height="54" fill="#c8d2d6" opacity="0.92"/><line x1="845.3117438075133" y1="821.9221943281591" x2="928.0745693359058" y2="821.9221943281591" stroke="#2a251d" stroke-width="2.5" opacity="0.5"/><rect x="845.3117438075133" y="886.9221943281591" width="82.76282552839257" height="54" fill="#c8d2d6" opacity="0.92"/><line x1="845.3117438075133" y1="913.9221943281591" x2="928.0745693359058" y2="913.9221943281591" stroke="#2a251d" stroke-width="2.5" opacity="0.5"/><rect x="720.5489182791207" y="484.9221943281591" width="205.52565105678514" height="6" fill="#6f6455" opacity="0.55"/><rect x="720.5489182791207" y="576.9221943281591" width="205.52565105678514" height="6" fill="#6f6455" opacity="0.55"/><rect x="720.5489182791207" y="668.9221943281591" width="205.52565105678514" height="6" fill="#6f6455" opacity="0.55"/><rect x="720.5489182791207" y="760.9221943281591" width="205.52565105678514" height="6" fill="#6f6455" opacity="0.55"/><rect x="720.5489182791207" y="852.9221943281591" width="205.52565105678514" height="6" fill="#6f6455" opacity="0.55"/><rect x="720.5489182791207" y="944.9221943281591" width="205.52565105678514" height="6" fill="#6f6455" opacity="0.55"/><rect x="978.0745693359058" y="469.1714351233095" width="204.55554708372802" height="562.8285648766905" fill="#f7f2e9"/><rect x="978.0745693359058" y="469.1714351233095" width="204.55554708372802" height="14" fill="#14110d"/><rect x="1000.0745693359058" y="513.1714351233095" width="76.27777354186401" height="54" fill="#c8d2d6" opacity="0.92"/><line x1="1000.0745693359058" y1="540.1714351233095" x2="1076.3523428777698" y2="540.1714351233095" stroke="#2a251d" stroke-width="2.5" opacity="0.5"/><rect x="1000.0745693359058" y="605.1714351233095" width="76.27777354186401" height="54" fill="#d98e32" opacity="0.85"/><line x1="1000.0745693359058" y1="632.1714351233095" x2="1076.3523428777698" y2="632.1714351233095" stroke="#2a251d" stroke-width="2.5" opacity="0.5"/><rect x="1000.0745693359058" y="697.1714351233095" width="76.27777354186401" height="54" fill="#c8d2d6" opacity="0.92"/><line x1="1000.0745693359058" y1="724.1714351233095" x2="1076.3523428777698" y2="724.1714351233095" stroke="#2a251d" stroke-width="2.5" opacity="0.5"/><rect x="1000.0745693359058" y="789.1714351233095" width="76.27777354186401" height="54" fill="#c8d2d6" opacity="0.92"/><line x1="1000.0745693359058" y1="816.1714351233095" x2="1076.3523428777698" y2="816.1714351233095" stroke="#2a251d" stroke-width="2.5" opacity="0.5"/><rect x="1000.0745693359058" y="881.1714351233095" width="76.27777354186401" height="54" fill="#c8d2d6" opacity="0.92"/><line x1="1000.0745693359058" y1="908.1714351233095" x2="1076.3523428777698" y2="908.1714351233095" stroke="#2a251d" stroke-width="2.5" opacity="0.5"/><rect x="1102.3523428777698" y="513.1714351233095" width="76.27777354186401" height="54" fill="#c8d2d6" opacity="0.92"/><line x1="1102.3523428777698" y1="540.1714351233095" x2="1178.6301164196339" y2="540.1714351233095" stroke="#2a251d" stroke-width="2.5" opacity="0.5"/><rect x="1102.3523428777698" y="605.1714351233095" width="76.27777354186401" height="54" fill="#d98e32" opacity="0.85"/><line x1="1102.3523428777698" y1="632.1714351233095" x2="1178.6301164196339" y2="632.1714351233095" stroke="#2a251d" stroke-width="2.5" opacity="0.5"/><rect x="1102.3523428777698" y="697.1714351233095" width="76.27777354186401" height="54" fill="#c8d2d6" opacity="0.92"/><line x1="1102.3523428777698" y1="724.1714351233095" x2="1178.6301164196339" y2="724.1714351233095" stroke="#2a251d" stroke-width="2.5" opacity="0.5"/><rect x="1102.3523428777698" y="789.1714351233095" width="76.27777354186401" height="54" fill="#c8d2d6" opacity="0.92"/><line x1="1102.3523428777698" y1="816.1714351233095" x2="1178.6301164196339" y2="816.1714351233095" stroke="#2a251d" stroke-width="2.5" opacity="0.5"/><rect x="1102.3523428777698" y="881.1714351233095" width="76.27777354186401" height="54" fill="#c8d2d6" opacity="0.92"/><line x1="1102.3523428777698" y1="908.1714351233095" x2="1178.6301164196339" y2="908.1714351233095" stroke="#2a251d" stroke-width="2.5" opacity="0.5"/><rect x="984.0745693359058" y="571.1714351233095" width="192.55554708372802" height="6" fill="#6f6455" opacity="0.55"/><rect x="984.0745693359058" y="663.1714351233095" width="192.55554708372802" height="6" fill="#6f6455" opacity="0.55"/><rect x="984.0745693359058" y="755.1714351233095" width="192.55554708372802" height="6" fill="#6f6455" opacity="0.55"/><rect x="984.0745693359058" y="847.1714351233095" width="192.55554708372802" height="6" fill="#6f6455" opacity="0.55"/><rect x="984.0745693359058" y="939.1714351233095" width="192.55554708372802" height="6" fill="#6f6455" opacity="0.55"/><rect x="96" y="1006" width="384" height="30" rx="10" fill="#5d6b52"/><circle cx="113" cy="1013" r="10" fill="#5d6b52"/><circle cx="148" cy="1013" r="10" fill="#5d6b52"/><circle cx="183" cy="1013" r="10" fill="#5d6b52"/><circle cx="218" cy="1013" r="10" fill="#5d6b52"/><circle cx="253" cy="1013" r="10" fill="#5d6b52"/><circle cx="288" cy="1013" r="10" fill="#5d6b52"/><circle cx="323" cy="1013" r="10" fill="#5d6b52"/><circle cx="358" cy="1013" r="10" fill="#5d6b52"/><circle cx="393" cy="1013" r="10" fill="#5d6b52"/><circle cx="428" cy="1013" r="10" fill="#5d6b52"/><circle cx="463" cy="1013" r="10" fill="#5d6b52"/><rect x="1152" y="1006" width="352" height="30" rx="10" fill="#7c8871"/><circle cx="1170" cy="1013" r="10" fill="#7c8871"/><circle cx="1205" cy="1013" r="10" fill="#7c8871"/><circle cx="1240" cy="1013" r="10" fill="#7c8871"/><circle cx="1275" cy="1013" r="10" fill="#7c8871"/><circle cx="1310" cy="1013" r="10" fill="#7c8871"/><circle cx="1346" cy="1013" r="10" fill="#7c8871"/><circle cx="1381" cy="1013" r="10" fill="#7c8871"/><circle cx="1416" cy="1013" r="10" fill="#7c8871"/><circle cx="1451" cy="1013" r="10" fill="#7c8871"/><circle cx="1486" cy="1013" r="10" fill="#7c8871"/><line x1="144" y1="1008" x2="144" y2="945.9" stroke="#6d5138" stroke-width="10.3"/>
<circle cx="122.84" cy="927.5" r="52.9" fill="#5d6b52" opacity="0.92"/>
<circle cx="170.45" cy="939" r="43.37799999999999" fill="#7c8871" opacity="0.95"/>
<circle cx="144" cy="902.2" r="37.029999999999994" fill="#8d987f" opacity="0.9"/><line x1="1472" y1="1082" x2="1472" y2="1012" stroke="#7a5a3d" stroke-width="10.0" stroke-linecap="round"/><path d="M1472 1012 Q 1420 996 1368 1012" stroke="#5d6b52" stroke-width="7.0" fill="none" stroke-linecap="round"/><path d="M1472 1012 Q 1432 978 1392 983" stroke="#5d6b52" stroke-width="7.0" fill="none" stroke-linecap="round"/><path d="M1472 1012 Q 1446 960 1421 957" stroke="#5d6b52" stroke-width="7.0" fill="none" stroke-linecap="round"/><path d="M1472 1012 Q 1472 959 1472 955" stroke="#5d6b52" stroke-width="7.0" fill="none" stroke-linecap="round"/><path d="M1472 1012 Q 1497 962 1522 959" stroke="#5d6b52" stroke-width="7.0" fill="none" stroke-linecap="round"/><path d="M1472 1012 Q 1506 980 1539 988" stroke="#5d6b52" stroke-width="7.0" fill="none" stroke-linecap="round"/><path d="M1472 1012 Q 1515 996 1558 1012" stroke="#5d6b52" stroke-width="7.0" fill="none" stroke-linecap="round"/><rect x="0" y="1098" width="1600" height="102" fill="#6f6455" opacity="0.35"/>
<rect x="0" y="0" width="1600" height="10" fill="#14110d"/>
<rect x="0" y="1190" width="1600" height="10" fill="#14110d"/></svg>